# xmcd
#
# Track frame offsets:
# 150
# 3690
# 17295
# 39107
# 51465
# 68642
# 83540
# 100677
# 138910
# 153202
# 165082
# 176210
# 214545
#
# Disc length: 3280 seconds
#
#
# Revision: 5
# Processed by: cddbd v1.5.1PL0 Copyright (c) Steve Scherf et al.
# Submitted via: FreeRIP 2.60 
#
DISCID=8e0cce0d
DTITLE=Royal Crown Revue - Caught In The Act [Live]
DYEAR=1997
DGENRE=Swing
TTITLE0=Intro
TTITLE1=Barflies At The Beach
TTITLE2=Boogie After Midnight
TTITLE3=Something's Gotta Give
TTITLE4=Honey Child
TTITLE5=Park's Place
TTITLE6=The Mooch
TTITLE7=Hey Pachuco!
TTITLE8=Who Dat?
TTITLE9=Mousetrap
TTITLE10=Datin' With No Dough
TTITLE11=Hot Rod
TTITLE12=Poppity Pop Goes The Motorcycle
EXTD=
EXTT0=
EXTT1=
EXTT2=
EXTT3=
EXTT4=
EXTT5=
EXTT6=
EXTT7=
EXTT8=
EXTT9=
EXTT10=
EXTT11=
EXTT12=
PLAYORDER=
